<svg width="58" height="58" viewBox="0 0 58 58" fill="none" xmlns="http://www.w3.org/2000/svg">
<g clip-path="url(#clip0_1_16)" filter="url(#filter0_d_1_16)">
<path d="M53.1665 0H15.6666C15.2064 0 14.8333 0.373124 14.8333 0.833332V13.3333H16.5V1.66666H52.3332V47.4999C52.3412 47.9381 52.0031 48.3052 51.5657 48.3332C51.494 48.3332 51.4224 48.3274 51.3507 48.3257C51.2032 48.3216 51.0557 48.3182 50.9107 48.3032C50.8982 48.3032 50.8866 48.3032 50.8741 48.2982C48.1524 48.0007 46.0025 45.8529 45.7024 43.1316C45.7024 43.1199 45.6982 43.1074 45.6966 43.0957C45.6764 42.8977 45.6664 42.6989 45.6666 42.4999V40.8333C45.6666 40.373 45.2934 39.9999 44.8332 39.9999H16.5V24.9999H14.8333V39.9999H8.16664C7.70644 39.9999 7.33331 40.373 7.33331 40.8333V42.4999C7.3379 46.6401 10.6931 49.9953 14.8333 49.9999H51.5832C52.9355 49.9645 54.0103 48.8526 53.9999 47.4999V0.833332C53.9999 0.373124 53.6268 0 53.1665 0ZM14.8333 48.3332C11.6132 48.3296 9.00362 45.72 8.99998 42.4999V41.6666H43.9999V42.4999C44.001 42.7747 44.0169 43.0493 44.0474 43.3224C44.0549 43.3949 44.0691 43.4649 44.0791 43.5366C44.1066 43.7382 44.1399 43.9391 44.1841 44.1366C44.1991 44.2057 44.2182 44.2741 44.2357 44.3432C44.2866 44.5441 44.3441 44.7416 44.4107 44.9366C44.4299 44.9924 44.4499 45.0474 44.4707 45.1032C44.5466 45.3099 44.6324 45.5116 44.7266 45.7107C44.7466 45.7516 44.7649 45.7941 44.7849 45.8316C44.8894 46.0427 45.0041 46.2479 45.1291 46.4474C45.1457 46.4741 45.1607 46.5016 45.1774 46.5307C45.3132 46.7436 45.4599 46.9494 45.6166 47.1474L45.6432 47.1832C45.8251 47.4117 46.0199 47.6295 46.2266 47.8357C46.406 48.0135 46.5921 48.1802 46.7849 48.3357L14.8333 48.3332Z" fill="white"/>
<path d="M31.4999 23.3333C31.721 23.3333 31.9329 23.2454 32.0891 23.0891L35.4224 19.7558C35.7477 19.4304 35.7477 18.9029 35.4224 18.5775L32.0891 15.2441C31.9329 15.0879 31.721 15 31.4999 15H8.16666C5.86552 15 4 16.8655 4 19.1666C4 21.4678 5.86552 23.3333 8.16666 23.3333H31.4999ZM31.2849 16.7966L33.6549 19.1666L31.2849 21.5366L30.6924 19.1666L31.2849 16.7966ZM10.6667 16.6666H29.5999L29.1833 18.3333H12.3333V20H29.1833L29.5999 21.6666H10.6667V16.6666ZM5.66666 19.1666C5.66666 17.7859 6.78593 16.6666 8.16666 16.6666H8.99999V21.6666H8.16666C6.78593 21.6666 5.66666 20.5474 5.66666 19.1666Z" fill="white"/>
<path d="M23.1667 35.8333H48.1666C48.6268 35.8333 48.9999 35.4601 48.9999 34.9999V9.99998C48.9998 9.53977 48.6267 9.16675 48.1664 9.16685C47.9455 9.16685 47.7337 9.25467 47.5774 9.41081L22.5775 34.4108C22.2521 34.7363 22.2522 35.2639 22.5777 35.5893C22.734 35.7454 22.9457 35.8333 23.1667 35.8333ZM47.3333 12.0116V14.1666H45.6666V15.8333H47.3333V17.5H45.6666V19.1666H47.3333V20.8333H45.6666V22.5H47.3333V24.1666H45.6666V25.8333H47.3333V27.4999H45.6666V29.1666H47.3333V30.8333H45.6666V32.4999H47.3333V34.1666H45.6666V32.4999H44V34.1666H42.3333V32.4999H40.6666V34.1666H39V32.4999H37.3333V34.1666H35.6666V32.4999H34V34.1666H32.3333V32.4999H30.6666V34.1666H29V32.4999H27.3333V34.1666H25.1783L47.3333 12.0116Z" fill="white"/>
<path d="M35.2375 30.8333H43.1666C43.6268 30.8333 44 30.4602 44 29.9999V22.0708C43.9999 21.6106 43.6267 21.2376 43.1664 21.2377C42.9455 21.2377 42.7337 21.3255 42.5775 21.4816L34.6483 29.4108C34.3229 29.7363 34.323 30.2639 34.6485 30.5893C34.8048 30.7455 35.0165 30.8333 35.2375 30.8333ZM42.3333 24.0833V29.1666H37.25L42.3333 24.0833Z" fill="white"/>
<path d="M42.3333 4.99998H25.6666V6.66665H42.3333V4.99998Z" fill="white"/>
<path d="M44.8332 8.33331H23.1666V9.99998H44.8332V8.33331Z" fill="white"/>
<path d="M23.1666 25.8333H18.1666V27.4999H23.1666V25.8333Z" fill="white"/>
<path d="M21.5 29.1666H18.1666V30.8333H21.5V29.1666Z" fill="white"/>
</g>
<defs>
<filter id="filter0_d_1_16" x="0" y="0" width="58" height="58" filterUnits="userSpaceOnUse" color-interpolation-filters="sRGB">
<feFlood flood-opacity="0" result="BackgroundImageFix"/>
<feColorMatrix in="SourceAlpha" type="matrix" values="0 0 0 0 0 0 0 0 0 0 0 0 0 0 0 0 0 0 127 0" result="hardAlpha"/>
<feOffset dy="4"/>
<feGaussianBlur stdDeviation="2"/>
<feComposite in2="hardAlpha" operator="out"/>
<feColorMatrix type="matrix" values="0 0 0 0 0 0 0 0 0 0 0 0 0 0 0 0 0 0 0.25 0"/>
<feBlend mode="normal" in2="BackgroundImageFix" result="effect1_dropShadow_1_16"/>
<feBlend mode="normal" in="SourceGraphic" in2="effect1_dropShadow_1_16" result="shape"/>
</filter>
<clipPath id="clip0_1_16">
<rect width="50" height="50" fill="white" transform="translate(4)"/>
</clipPath>
</defs>
</svg>
