<svg width="48" height="41" viewBox="0 0 48 41" fill="none" xmlns="http://www.w3.org/2000/svg">
<g filter="url(#filter0_d_121523_17)">
<path d="M45 4C43.4909 4.7 41.8642 5.16 40.1788 5.38C41.9034 4.32 43.2361 2.64 43.8633 0.62C42.2366 1.62 40.4336 2.32 38.5325 2.72C36.9842 1 34.8088 0 32.3394 0C27.7337 0 23.9708 3.84 23.9708 8.58C23.9708 9.26 24.0492 9.92 24.1864 10.54C17.2094 10.18 10.9967 6.76 6.86138 1.58C6.13623 2.84 5.72467 4.32 5.72467 5.88C5.72467 8.86 7.19455 11.5 9.46797 13C8.07648 13 6.78298 12.6 5.64627 12V12.06C5.64627 16.22 8.54685 19.7 12.3881 20.48C11.1549 20.8244 9.86013 20.8723 8.60564 20.62C9.13795 22.325 10.1805 23.8168 11.5866 24.8859C12.9928 25.9549 14.6918 26.5474 16.445 26.58C13.4732 28.9809 9.78938 30.2786 5.99904 30.26C5.3327 30.26 4.66635 30.22 4 30.14C7.72371 32.58 12.153 34 16.8958 34C32.3394 34 40.8255 20.92 40.8255 9.58C40.8255 9.2 40.8255 8.84 40.8059 8.46C42.4522 7.26 43.8633 5.74 45 4Z" fill="white"/>
</g>
<defs>
<filter id="filter0_d_121523_17" x="0" y="0" width="49" height="42" filterUnits="userSpaceOnUse" color-interpolation-filters="sRGB">
<feFlood flood-opacity="0" result="BackgroundImageFix"/>
<feColorMatrix in="SourceAlpha" type="matrix" values="0 0 0 0 0 0 0 0 0 0 0 0 0 0 0 0 0 0 127 0" result="hardAlpha"/>
<feOffset dy="4"/>
<feGaussianBlur stdDeviation="2"/>
<feComposite in2="hardAlpha" operator="out"/>
<feColorMatrix type="matrix" values="0 0 0 0 0 0 0 0 0 0 0 0 0 0 0 0 0 0 0.25 0"/>
<feBlend mode="normal" in2="BackgroundImageFix" result="effect1_dropShadow_121523_17"/>
<feBlend mode="normal" in="SourceGraphic" in2="effect1_dropShadow_121523_17" result="shape"/>
</filter>
</defs>
</svg>
